<?xml version="1.0" encoding="UTF-8" standalone="no"?>
<!-- Created with Inkscape (http://www.inkscape.org/) -->

<svg
   width="200mm"
   height="100mm"
   viewBox="0 0 200 100"
   version="1.1"
   id="svg1"
   xml:space="preserve"
   inkscape:version="1.3 (0e150ed6c4, 2023-07-21)"
   sodipodi:docname="SpliceHarmonization LOGO.svg"
   xmlns:inkscape="http://www.inkscape.org/namespaces/inkscape"
   xmlns:sodipodi="http://sodipodi.sourceforge.net/DTD/sodipodi-0.dtd"
   xmlns="http://www.w3.org/2000/svg"
   xmlns:svg="http://www.w3.org/2000/svg"><sodipodi:namedview
     id="namedview1"
     pagecolor="#ffffff"
     bordercolor="#000000"
     borderopacity="0.25"
     inkscape:showpageshadow="2"
     inkscape:pageopacity="0.0"
     inkscape:pagecheckerboard="0"
     inkscape:deskcolor="#d1d1d1"
     inkscape:document-units="mm"
     inkscape:zoom="1.6204616"
     inkscape:cx="303.6172"
     inkscape:cy="39.803474"
     inkscape:window-width="5160"
     inkscape:window-height="2054"
     inkscape:window-x="-11"
     inkscape:window-y="-11"
     inkscape:window-maximized="1"
     inkscape:current-layer="layer1" /><defs
     id="defs1" /><g
     inkscape:label="Layer 1"
     inkscape:groupmode="layer"
     id="layer1"><path
       d="m 106.66094,77.803454 c 4.60225,-0.6033 11.3138,-2.95677 15.5295,-5.44558 6.97524,-4.11794 13.17894,-10.45399 17.53096,-17.90496 0.82459,-1.41177 2.09349,-3.51935 2.81976,-4.68351 0.72628,-1.16417 2.11994,-3.48589 3.09703,-5.15938 4.57238,-7.83127 6.94707,-11.27758 10.37257,-15.05337 0.84422,-0.93055 1.53494,-1.76808 1.53494,-1.86118 0,-0.0931 -0.34779,-0.37472 -0.77286,-0.62582 -1.12973,-0.66734 -1.69506,-2.35541 -1.56423,-4.67074 0.10471,-1.85313 0.10077,-1.86597 -0.57195,-1.86597 -0.37256,0 -0.97176,0.19604 -1.33156,0.43565 -1.04608,0.69662 -3.13121,2.77025 -4.0848,4.06226 -1.11582,1.51183 -5.90259,9.31285 -8.68575,14.15521 -0.58547,1.01865 -2.65809,4.25992 -4.60584,7.20283 -7.66885,11.58712 -15.30323,18.11827 -24.9534,21.34742 -4.10765,1.3745 -7.30954,1.82678 -11.770224,1.66258 -5.484437,-0.20188 -8.874587,-1.01284 -13.493727,-3.22786 -4.55865,-2.18601 -9.41008,-5.8322 -12.67008,-9.52245 -1.88595,-2.13485 -4.60536,-5.9876 -5.93083,-8.40258 -1.70784,-3.11161 -3.95386,-6.30914 -4.12268,-5.86921 -0.0818,0.21326 -0.7024,1.23582 -1.37904,2.27237 -0.67663,1.03654 -1.55439,2.59869 -1.95057,3.47144 l -0.72031,1.58682 0.65073,1.35391 c 2.57195,5.35112 7.92081,12.5422 11.85415,15.93688 10.1078,8.72354 22.37871,12.48836 35.218211,10.80524 z m -0.45836,-13.73934 c 0.43023,-0.22248 1.00151,-0.90195 1.33155,-1.58371 0.50531,-1.04384 0.53848,-1.31389 0.26367,-2.14658 -0.49422,-1.4975 -1.74465,-2.7594 -2.73315,-2.75823 -1.75884,0.002 -3.60763,1.87788 -3.60962,3.66236 -0.003,2.41638 2.5739,3.9502 4.74755,2.82616 z m -2.45857,-1.41711 c -0.51158,-0.56528 -0.58908,-2.43412 -0.12039,-2.90281 0.56918,-0.56918 2.00735,-0.38497 2.4666,0.31594 1.10345,1.68408 -1.03222,4.03881 -2.34621,2.58687 z m -64.086961,0.46048 c 1.40926,-0.35485 3.00398,-1.63118 3.48926,-2.79261 0.43642,-1.04451 0.47434,-3.65527 0.0761,-5.237 -0.6107,-2.4253 -3.27436,-4.38243 -5.96448,-4.38243 -0.76232,0 -1.67822,0.11108 -2.03533,0.24686 -1.12883,0.42918 -2.62183,1.95063 -3.26096,3.32309 -1.4166,3.04202 -0.33244,6.17011 2.77302,8.00088 1.82489,1.07584 3.11505,1.29632 4.92244,0.84121 z m 124.715681,-0.21461 c 1.29874,-0.66257 2.32601,-1.71437 3.25614,-3.33389 1.50221,-2.61562 0.87793,-5.59321 -1.563,-7.45497 -2.68081,-2.04473 -5.69626,-1.67892 -8.1009,0.98274 -1.32122,1.46243 -1.74218,2.54732 -1.74218,4.4899 0,2.48749 1.28238,4.38579 3.70416,5.48323 1.0654,0.48279 3.33952,0.39736 4.44578,-0.16701 z m -67.420272,-0.49003 c 1.090824,-0.54711 1.581921,-1.41058 1.587271,-2.79086 0.014,-3.61814 -4.248016,-4.61681 -5.82253,-1.36431 -0.65691,1.35699 -0.65909,2.15873 -0.009,3.14555 0.97802,1.48364 2.552108,1.85811 4.243839,1.00962 z m -2.733415,-1.34334 c -0.948554,-1.04814 -0.147694,-2.95573 1.240894,-2.95573 1.295614,0 2.034978,2.06926 1.080434,3.02381 -0.561387,0.56139 -1.784121,0.52553 -2.321328,-0.0681 z m -80.606644,0.33805 c 1.6268,-0.82666 2.9201,-2.97115 2.8988,-4.80664 -0.0354,-3.05414 -2.06139,-5.10172 -5.04783,-5.10172 -1.6518397,0 -3.4600688,0.93975 -4.0671585,2.11373 -1.8826888,3.64072 -0.3400097,7.32712 3.4380585,8.21563 0.89614,0.21075 1.80634,0.0728 2.77813,-0.421 z m 177.970161,-0.37507 c 1.81085,-1.0386 2.59931,-2.3253 2.59846,-4.24046 -8.6e-4,-1.91968 -0.74364,-3.34094 -2.29682,-4.39476 -2.06648,-1.4021 -4.31189,-1.37552 -6.03148,0.0714 -3.62812,3.05287 -1.49989,9.30431 3.17839,9.33618 0.84514,0.006 1.58549,-0.21837 2.55145,-0.77238 z m -76.09694,-0.67423 c 1.0089,-0.52172 1.57884,-1.65817 1.57884,-3.14818 0,-0.95435 -0.16227,-1.37937 -0.80698,-2.11365 -1.01342,-1.15422 -2.26173,-1.6078 -3.3221,-1.20709 -1.77031,0.66898 -2.96067,2.62213 -2.63996,4.33166 0.38241,2.0384 3.16531,3.18437 5.1902,2.13726 z m -3.17942,-1.63772 c -0.93667,-1.19078 -0.0553,-2.98801 1.46527,-2.98801 1.29776,0 1.91997,2.16676 0.91174,3.175 -0.74512,0.74512 -1.70309,0.66976 -2.37701,-0.18699 z m -23.736001,1.28165 c 1.13405,-0.74773 1.55088,-1.52305 1.55088,-2.88463 0,-1.10883 -0.11373,-1.34678 -1.07013,-2.2389 -1.47469,-1.37557 -2.788,-1.39987 -4.1118,-0.0761 -2.18024,2.18024 -1.06836,5.69529 1.80008,5.6907 0.6127,-9.8e-4 1.41333,-0.21573 1.83097,-0.4911 z m -2.84383,-1.41811 c -0.22654,-0.32343 -0.41188,-0.83272 -0.41188,-1.13176 0,-1.24096 1.3456,-2.13821 2.27549,-1.5173 0.3936,0.26281 0.89951,1.25522 0.89951,1.76449 0,0.62854 -0.97715,1.4726 -1.70479,1.4726 -0.36809,0 -0.82381,-0.25321 -1.05833,-0.58803 z m 68.452281,-1.77035 c -0.16825,-1.85546 0.53987,-3.63805 1.80226,-4.53695 0.42408,-0.30197 0.77104,-0.67203 0.77104,-0.82236 0,-0.15033 -0.79099,-1.12448 -1.75776,-2.16479 -0.96676,-1.04031 -2.40827,-2.75246 -3.20334,-3.80477 l -1.44559,-1.9133 -1.26453,2.10399 c -0.6955,1.1572 -1.57571,2.4738 -1.95603,2.92579 -0.38032,0.45198 -0.6915,0.9736 -0.6915,1.15914 0,0.57368 2.68028,4.39656 4.08792,5.83061 0.73483,0.7486 1.87182,1.67008 2.52667,2.04772 0.65484,0.37764 1.2091,0.69853 1.23168,0.71309 0.0226,0.0145 -0.0228,-0.67762 -0.10082,-1.53817 z m -107.076821,0.61154 c 1.49679,-0.71028 3.29153,-2.48677 5.3187,-5.26461 1.06195,-1.45521 2.6497,-3.62311 3.52832,-4.81756 0.87863,-1.19445 2.5399,-3.7543 3.69171,-5.68854 7.41003,-12.44367 16.43933,-22.49977 23.76096,-26.46299 4.47352,-2.42153 10.77641,-4.3415 15.14211,-4.61255 2.871381,-0.178271 8.135921,0.45566 11.244781,1.35406 2.77576,0.80213 8.39922,3.49918 11.2448,5.39309 2.55684,1.70174 6.70122,5.76687 9.62928,9.44515 2.36243,2.96771 6.00989,8.6266 6.53944,10.14565 0.16257,0.46637 0.43089,0.80349 0.59625,0.74916 0.16536,-0.0543 0.61129,-0.86342 0.99096,-1.79797 0.37967,-0.93454 1.29583,-2.64147 2.03591,-3.79316 1.58712,-2.46985 1.63221,-2.18948 -1.04367,-6.48868 -5.16747,-8.30228 -10.58543,-13.67135 -18.237,-18.0724106 -1.6614,-0.9556 -6.07085,-2.68665 -8.88832,-3.48933 -9.40061,-2.6782 -19.798161,-2.07994 -29.220291,1.68127 -8.49124,3.38961 -17.10312,11.2605106 -23.26345,21.2618006 -1.09513,1.77792 -2.64869,4.24462 -3.45236,5.48155 -0.80368,1.23692 -2.2116,3.57464 -3.12872,5.19492 -2.00237,3.53761 -4.22878,6.55182 -7.58411,10.26772 -1.37325,1.52082 -2.49682,2.82694 -2.49682,2.90247 0,0.0755 0.34594,0.68282 0.76875,1.34953 0.80271,1.26574 1.50122,4.25636 1.20912,5.17671 -0.20376,0.64197 0.37526,0.67237 1.61365,0.0847 z m 130.684501,-0.62225 c 3.81023,-0.0279 3.83646,-0.04 3.83646,-1.77111 0,-0.91433 -0.11966,-1.47024 -0.33073,-1.53653 -0.1819,-0.0571 -2.22533,-0.15851 -4.54095,-0.22528 -4.1372,-0.11929 -4.22095,-0.11066 -4.82865,0.49703 -0.79631,0.79632 -0.78507,1.72675 0.0326,2.69849 0.61252,0.72793 0.72597,0.76136 1.91823,0.56524 0.69697,-0.11465 2.45784,-0.21718 3.91305,-0.22784 z m -149.092681,-1.6578 c 0,-0.4644 -0.26613,-1.02578 -0.6847,-1.44435 -0.6335,-0.63351 -0.80455,-0.67217 -2.28777,-0.51714 -0.88169,0.0922 -2.58913,0.16755 -3.79432,0.16755 -1.63927,0 -2.29598,0.10473 -2.60702,0.41577 -0.4327,0.4327 -0.55988,2.12279 -0.20211,2.6859 0.14402,0.22668 1.4299,0.34549 4.29542,0.39687 3.71546,0.0666 4.14437,0.0267 4.68518,-0.43581 0.36092,-0.30867 0.59532,-0.80825 0.59532,-1.26879 z m 76.993721,-0.44301 c 0,-1.25283 0.13387,-1.95149 0.46302,-2.41654 0.42747,-0.60395 0.45914,-1.6468 0.4125,-13.58067 -0.0551,-14.09801 -0.006,-13.65305 -1.55873,-14.04283 -0.83494,-0.20956 -2.13434,0.46469 -2.38138,1.23569 -0.10543,0.32902 -0.19946,6.16159 -0.20897,12.96127 l -0.0173,12.36305 0.82538,0.86611 c 0.68324,0.71696 0.85788,1.16229 1.01408,2.58591 0.22572,2.05734 0.24848,2.10493 0.92249,1.92867 0.46204,-0.12082 0.5289,-0.36112 0.5289,-1.90066 z m -8.772382,-1.81395 0.760947,-0.7276 -0.19956,-13.22917 c -0.131007,-8.68507 -0.304347,-13.56997 -0.504627,-14.22135 -0.356467,-1.1594 -0.878994,-1.26792 -1.904508,-0.39557 l -0.698277,0.594 -0.297474,6.35 c -0.1636,3.4925 -0.29586,9.6434 -0.2939,13.66867 l 0.004,7.31867 0.814054,0.68498 c 1.028724,0.86562 1.376611,0.85922 2.319785,-0.0426 z m 27.966702,-0.98016 0.64943,-0.64943 -0.001,-9.60318 c -8.7e-4,-5.66816 -0.11131,-9.99858 -0.26951,-10.56815 -0.36719,-1.32197 -1.3782,-1.94524 -2.99052,-1.84361 -0.26585,0.0168 -0.82866,0.37575 -1.25067,0.79777 l -0.76731,0.76731 0.1324,9.353 c 0.0728,5.14416 0.12961,9.63281 0.1262,9.97478 -0.004,0.36023 0.3722,1.00018 0.89338,1.52136 1.14086,1.14086 2.49031,1.23791 3.47807,0.25015 z m -45.246401,-0.45529 c 0.58318,-0.6079 0.59183,-0.7315 0.74176,-10.60712 l 0.1517,-9.99205 -0.80954,-0.92201 c -0.69633,-0.79308 -0.97389,-0.92202 -1.98478,-0.92202 -0.89501,0 -1.3301,0.15486 -1.82468,0.64944 l -0.64943,0.64943 v 9.78438 c 0,5.45692 0.10985,10.07332 0.24838,10.43766 0.1366,0.3593 0.52356,0.9128 0.85989,1.23 0.78703,0.74224 2.40572,0.58977 3.2667,-0.30771 z m 8.55435,-0.49866 0.89078,-0.54307 -0.10343,-11.39075 -0.10344,-11.39076 -0.61822,-0.5006 c -0.82426,-0.66745 -1.43716,-0.63091 -2.33078,0.13893 l -0.74235,0.63954 0.083,11.33286 c 0.0827,11.29186 0.085,11.33451 0.66145,11.78999 0.75495,0.59657 1.18325,0.58216 2.26303,-0.0761 z m 26.709381,-0.52095 0.87726,-0.53485 -0.16895,-9.98135 c -0.10393,-6.13991 -0.27697,-10.20374 -0.44962,-10.55921 -0.62785,-1.29268 -2.44363,-1.34803 -3.11427,-0.0949 -0.17085,0.31924 -0.27065,4.21232 -0.27065,10.55806 v 10.05236 l 0.69714,0.54837 c 0.87057,0.68479 1.32131,0.68693 2.42909,0.0115 z m 76.05032,-3.74959 c 0.60244,-0.6957 0.58533,-1.30756 -0.0595,-2.12731 l -0.5225,-0.66426 -14.3603,-0.17152 c -7.89817,-0.0943 -15.42448,-0.25797 -16.72515,-0.36361 -1.48184,-0.12037 -2.56855,-0.0908 -2.91041,0.0791 -0.89233,0.44358 -0.82516,1.35421 0.17354,2.35291 0.84867,0.84867 1.00652,0.89828 3.39277,1.06641 5.13337,0.36168 14.39594,0.55189 22.34644,0.45889 7.83821,-0.0917 8.22262,-0.11965 8.6651,-0.63063 z m -154.926951,0.14939 6.93187,-0.17875 0.91073,-0.95097 c 0.5009,-0.52302 0.98996,-1.21488 1.08681,-1.53746 0.14519,-0.48361 0.0494,-0.6183 -0.54638,-0.76782 -0.81073,-0.20348 -10.20356,0.0335 -18.22531,0.45987 -2.91155,0.15475 -7.50502,0.20138 -10.21256,0.10368 -4.37977,-0.15804 -4.96913,-0.12933 -5.35955,0.26109 -0.8814797,0.88148 -0.9614597,1.32049 -0.40673,2.23266 l 0.52767,0.86769 9.18079,-0.15562 c 5.04944,-0.0856 12.30013,-0.23605 16.11266,-0.33437 z m 34.89965,-2.79502 c 0.36032,-0.69678 0.41372,-1.38751 0.3017,-3.9026 -0.0749,-1.68079 -0.26588,-3.3834 -0.42447,-3.78358 -0.30825,-0.77781 -0.996,-0.94091 -1.90843,-0.45259 -0.82734,0.44278 -2.62635,2.89159 -2.62635,3.57498 0,0.59307 2.64056,4.79142 3.27553,5.20793 0.56864,0.37301 0.9473,0.19651 1.38202,-0.64414 z m -57.63187,-4.11153 c 0.88687,-0.41495 2.52008,-0.47561 16.5941,-0.61631 8.58573,-0.0858 15.87831,-0.2498 16.20573,-0.36436 0.8829,-0.30893 0.72805,-0.92077 -0.51858,-2.04894 l -1.11389,-1.00806 -6.096,0.0186 c -3.35281,0.0102 -9.78695,0.1082 -14.29809,0.21772 -5.97959,0.14518 -8.70394,0.11324 -10.05417,-0.11789 -2.02834,-0.3472 -2.5256,-0.22062 -3.20466,0.81576 -0.57823,0.88249 -0.29111,2.31874 0.60435,3.02311 0.82631,0.64997 0.67741,0.64361 1.88121,0.0804 z m 177.030081,-0.881 c 0.23247,-0.41618 0.31102,-0.95354 0.20255,-1.38572 -0.37636,-1.49954 0.10248,-1.45928 -18.34207,-1.54232 -16.26854,-0.0732 -17.00564,-0.0557 -17.52864,0.41763 -0.67833,0.61387 -0.70163,1.5121 -0.0544,2.09782 0.43538,0.394 1.84884,0.47503 12.36927,0.70906 12.11478,0.2695 20.41143,0.41842 22.05587,0.39589 0.70335,-0.01 1.00643,-0.17137 1.29745,-0.69236 z m -139.015111,-3.4874 c 0.54806,-1.05502 1.40968,-2.60509 1.9147,-3.4446 l 0.91821,-1.52637 -1.27387,-2.17779 c -0.75312,-1.28752 -2.08718,-2.99982 -3.26335,-4.1886 -1.67519,-1.69314 -2.25071,-2.09793 -3.64312,-2.56234 l -1.65365,-0.55154 v 1.26609 c 0,1.62097 -0.40097,2.81638 -1.35562,4.04151 -0.41857,0.53717 -0.76104,1.0804 -0.76104,1.20718 0,0.12678 0.80727,1.11603 1.79393,2.19833 0.98666,1.0823 2.78862,3.24774 4.00435,4.81209 1.21572,1.56435 2.23574,2.84427 2.26669,2.84427 0.031,0 0.5047,-0.8632 1.05277,-1.91823 z m -18.09251,-3.7297 c 1.77019,-0.76054 1.73673,-1.0445 -0.22881,-1.94162 l -1.77663,-0.8109 -10.54164,-0.11568 -10.54165,-0.11569 -0.6588194,0.86377 c -0.8111797,1.06351 -0.7222997,1.69432 0.3116397,2.2118 1.1865297,0.59385 22.0300897,0.5123 23.4359097,-0.0917 z m 157.812631,0.0825 c 0.76967,-0.72307 0.82254,-1.30895 0.18866,-2.09083 l -0.46302,-0.57113 -14.81666,0.0102 -14.81666,0.0102 -0.60984,0.69554 c -0.38316,0.43702 -0.57985,0.95423 -0.52916,1.39152 0.071,0.61285 0.22285,0.71176 1.27129,0.82825 0.65484,0.0728 7.47557,0.17868 15.15717,0.23538 l 13.96654,0.10308 z M 38.890879,27.792424 c 2.44285,-1.15565 3.82568,-3.28844 3.82568,-5.90048 0,-2.40944 -0.8269,-4.37996 -2.20607,-5.25713 -1.30072,-0.82727 -3.57091,-1.09453 -5.07651,-0.59764 -2.27452,0.75066 -4.18107,3.57449 -4.19651,6.21556 -0.0143,2.43636 1.78594,4.90704 4.22706,5.80145 1.45247,0.53218 1.80504,0.50524 3.42635,-0.26176 z m 126.659701,-0.63075 c 3.43891,-2.1809 3.98406,-7.14436 1.08072,-9.83968 -1.30841,-1.21466 -2.46517,-1.66032 -4.34133,-1.67253 -1.43986,-0.009 -1.91647,0.10664 -2.77816,0.67628 -1.12791,0.74564 -1.43238,1.23445 -2.07471,3.33087 -0.68996,2.25189 -0.56289,3.77856 0.43933,5.2782 1.97409,2.95385 5.09829,3.86042 7.67415,2.22686 z m 25.54159,-0.51908 c 1.7075,-0.8783 3.23372,-2.98038 3.22913,-4.44751 -0.009,-2.90506 -2.78277,-5.36371 -5.68227,-5.03689 -3.10035,0.34945 -5.00874,3.98833 -3.60857,6.88071 1.31732,2.72124 3.77821,3.77826 6.06171,2.60369 z m -2.45794,-2.36859 c -0.43656,-0.26966 -1.03187,-0.76798 -1.32291,-1.10737 l -0.52917,-0.61707 0.79375,0.57176 c 2.03973,1.46927 2.65403,2.13833 1.05833,1.15268 z m -175.898951,2.32752 c 1.01359,-0.38296 2.18895,-1.52473 2.6295,-2.55435 0.789,-1.84403 0.23989,-4.7283 -1.12892,-5.92973 -3.12298,-2.74111 -7.1887682,-0.93362 -7.6656179,3.40783 -0.3546097,3.22857 3.2342182,6.18359 6.1650379,5.07625 z m 102.545091,-1.18138 c 2.16719,-1.47264 2.35678,-3.50421 0.51163,-5.48251 -0.56971,-0.61084 -0.89362,-0.72667 -2.01819,-0.72173 -0.86536,0.004 -1.54153,0.16771 -1.9101,0.46303 -0.72922,0.58428 -1.67615,2.16401 -1.67743,2.7984 -0.003,1.51447 1.99371,3.61186 3.43859,3.61186 0.369,0 1.11398,-0.30107 1.6555,-0.66905 z m -2.71383,-1.97679 c -0.60814,-0.60814 -0.65419,-1.02363 -0.21922,-1.97826 0.39902,-0.87577 1.35263,-1.11718 2.20552,-0.55834 0.94614,0.61993 0.98635,1.83578 0.0861,2.60275 -0.71407,0.60834 -1.42043,0.58579 -2.07237,-0.0661 z m -24.522681,1.29117 c 0.31786,-0.16298 0.96487,-0.66259 1.43781,-1.11023 0.73709,-0.69767 0.8599,-0.99483 0.8599,-2.08075 0,-1.02588 -0.14685,-1.43118 -0.77205,-2.13092 -0.71355,-0.7986 -0.89551,-0.86407 -2.40158,-0.86407 -1.54384,0 -1.67716,0.052 -2.53524,0.98831 -0.72404,0.79006 -0.90571,1.20646 -0.90571,2.07585 0,2.42145 2.35764,4.12642 4.31687,3.12181 z m -2.02691,-2.0396 c -0.52772,-0.58313 -0.5671,-1.61953 -0.0865,-2.27678 0.45728,-0.62536 1.68791,-0.61651 2.16656,0.0156 1.2018,1.58705 -0.76005,3.71977 -2.08004,2.2612 z m 92.166251,1.54043 c 1.67349,-0.003 3.21324,-0.11426 3.42166,-0.24615 0.2386,-0.15099 0.38559,-0.71294 0.39688,-1.5173 l 0.0179,-1.2775 -4.89479,-0.19497 c -4.76761,-0.18989 -4.90682,-0.18054 -5.35781,0.36005 -0.62124,0.74464 -0.5834,1.5949 0.11023,2.4767 0.53009,0.6739 0.67452,0.7166 1.91823,0.56715 0.73974,-0.0889 2.71419,-0.16448 4.38768,-0.16798 z m -150.084871,-0.5862 c 0.44382,-0.36311 0.41931,-1.57102 -0.0447,-2.20565 -0.33825,-0.46259 -0.76445,-0.52005 -4.29947,-0.57971 -4.70338,-0.0794 -5.47738,0.0738 -5.59831,1.10766 -0.12658,1.08207 0.15321,1.94279 0.68229,2.09896 0.79186,0.23374 8.9111,-0.13562 9.26024,-0.42126 z m 68.570792,-1.19839 c 1.043314,-0.53414 1.874508,-1.93164 1.874508,-3.15164 0,-0.5962 -0.262507,-1.12353 -0.891124,-1.79006 -0.759237,-0.80503 -1.062734,-0.94462 -2.050508,-0.94314 -1.943978,0.003 -3.385508,1.26816 -3.399928,2.98413 -0.01,1.18395 0.5873,2.19263 1.70005,2.87121 1.003571,0.612 1.616468,0.61853 2.767002,0.0295 z m -1.432761,-1.32491 c -1.860991,-0.41631 -1.960191,-2.79089 -0.14072,-3.36837 1.114544,-0.35375 2.034518,0.78854 1.816288,2.25521 -0.106407,0.71508 -0.949944,1.27549 -1.675568,1.11316 z m 11.95596,-0.15809 c 0.69143,-0.75449 0.8763,-1.18308 0.8763,-2.03159 0,-2.20865 -1.18597,-3.43032 -3.33008,-3.43032 -1.13089,0 -1.48312,0.12269 -2.0889,0.7276 -0.89347,0.8922 -1.1956,1.64352 -1.1956,2.97317 0,0.87208 0.16354,1.16154 1.12448,1.99025 1.03582,0.89329 1.22749,0.96019 2.43098,0.84843 1.08465,-0.10072 1.45532,-0.2837 2.18282,-1.07754 z m -3.63331,-1.11038 c -0.55739,-0.67162 -0.41807,-1.99041 0.26906,-2.54681 0.98484,-0.79747 2.38847,-0.15576 2.38847,1.09197 0,1.38455 -1.86744,2.40685 -2.65753,1.45484 z"
       style="fill:#000000"
       id="path1"
       sodipodi:nodetypes="sssssssssssssssssssssscssssssccssssscscssssccssssssscsscccssssssssssscssccccsssssssssssssssssssssssssssscssssscssssssssssssssssssssssssssssscssssssssssssssssssssscsssssccssscsccscccccscscccsccsscssscssssccccsscssccccsssscssccsccscsssccscssssssscsssssssssssssccsssssscsccsscccsscssscssssssssscccsssssscccsccscssssscsssscssssscssssscssssssssscscsssssssssssssssssssssssccsssssscssssccsssccssssssssssssssssss" /><text
       xml:space="preserve"
       style="font-style:normal;font-variant:normal;font-weight:normal;font-stretch:normal;font-size:22.5778px;font-family:Calibri;-inkscape-font-specification:Calibri;text-align:center;text-anchor:middle;fill:#000000;fill-opacity:1;stroke-width:0.499999;stroke-linecap:round;stroke-linejoin:round"
       x="102.24408"
       y="95.114792"
       id="text7"><tspan
         sodipodi:role="line"
         id="tspan7"
         x="102.24408"
         y="95.114792"
         style="font-style:normal;font-variant:normal;font-weight:normal;font-stretch:normal;font-size:22.5778px;font-family:Calibri;-inkscape-font-specification:Calibri;fill:#000000;stroke-width:0.5">SpliceHarmonization</tspan></text></g></svg>
